<svg xmlns="http://www.w3.org/2000/svg" viewBox="0 0 38.51 38.51" id="youtube"><g style="isolation:isolate"><g><g><g><rect width="38.51" height="38.51" fill="red" rx="6.97" ry="6.97"></rect><g style="mix-blend-mode:multiply"><path d="M38.5,31.54v-11.47c-2.68-2.68-5.36-5.36-8.05-8.05-1.02-1.06-2.45-1.72-4.03-1.72h-14.35c-3.1,0-5.61,2.51-5.61,5.61v6.68c0,1.59.66,3.01,1.72,4.03,3.96,3.96,7.92,7.92,11.88,11.88h11.47c3.83,0,6.97-3.14,6.97-6.97Z" style="mix-blend-mode:multiply" fill="#c00"></path></g><path fill="#fff" d="M23.6,19.75l-6.43,3.18c-.25.14-1.11-.05-1.11-.33v-6.53c0-.29.86-.47,1.12-.33l6.16,3.35c.26.15.53.52.27.66ZM26.43,10.3h-14.35c-3.1,0-5.61,2.51-5.61,5.61v6.68c0,3.1,2.51,5.61,5.61,5.61h14.35c3.1,0,5.61-2.51,5.61-5.61v-6.68c0-3.1-2.51-5.61-5.61-5.61Z"></path></g></g></g></g></svg>